<svg id="Layer_1" data-name="Layer 1" xmlns="http://www.w3.org/2000/svg" viewBox="0 0 134.47 172.14"><defs><style>.cls-1{fill:#fff;}</style></defs><title>if</title><path class="cls-1" d="M30.05,190v-6.9c15.71-1.15,17.62-2.81,17.62-18.9V114.14c0-14.69-.51-15.71-16-17.75V90.14c12.39-2.3,23-5.24,32.95-10v84c0,16.09,1.66,17.75,17.62,18.9V190ZM42.82,47.48A12,12,0,0,1,55,35.22c6.39,0,11.37,5.11,11.37,12.26A11.88,11.88,0,0,1,54.7,59.36,12.28,12.28,0,0,1,42.82,47.48Z" transform="translate(-30.05 -17.86)"/><path class="cls-1" d="M96.21,83.75v-4a84.27,84.27,0,0,1,2.3-20.43,63.82,63.82,0,0,1,18.26-28.48c8.56-7.28,17.88-11.62,26.56-13,8.3.77,15.71,3.83,19.54,8.81A9.15,9.15,0,0,1,164,35a12.56,12.56,0,0,1-4.34,5.24c-2,1.79-4,1.79-6.64-.51-4-4.09-11.11-8.3-18.9-8.3-6.9,0-10.73,2.55-14.3,7.15-3.06,4.47-6.39,16.35-6.39,36.91v8.3h28.73c1.4,2.17.26,8-2.43,10H113.45v69.47c0,17.62,1.4,18.26,20.94,20.43V190H78.59v-6.9c15.71-1.15,17.62-2.81,17.62-18.26V93.71H79.1L78,91.16l6.39-7.41Z" transform="translate(-30.05 -17.86)"/></svg>