<svg id="Layer_1" data-name="Layer 1" xmlns="http://www.w3.org/2000/svg" viewBox="0 0 137.34 178.85"><defs><style>.cls-1{fill:#fff;}</style></defs><title>if</title><path class="cls-1" d="M44.76,118.19c0-9.71,0-11-6.73-15.44l-2.24-1.5c-1-1-1-3.74.25-4.48,5.73-2,19.93-8.47,25.66-12.21a2.3,2.3,0,0,1,2.49,1.49c-.5,8.72-1,20.68-1,30.89v44.84c0,17.94.5,20.43,9.47,21.67l5.23.75c1.74,1.25,1.25,5.48-.5,6.23-7.47-.5-14.7-.75-23.42-.75-9,0-16.44.25-23.42.75-1.74-.75-2.24-5-.5-6.23l5.23-.75c9.22-1.25,9.47-3.74,9.47-21.67Zm20.68-71c0,9-6.23,13-13.2,13a12.24,12.24,0,0,1-12.7-12.46c0-8.22,6-13.45,13.45-13.45S65.44,40.22,65.44,47.2Z" transform="translate(-28.98 -11.58)"/><path class="cls-1" d="M112,102c-4.23,0-4.23.5-4.23,7.22v52.56c0,17.94.5,20.92,9.47,21.67l9,.75c1.74,1.25,1.25,5.48-.5,6.23-11.21-.5-18.43-.75-27.15-.75-9,0-16.44.25-23.91.75-1.74-.75-2.24-5-.5-6.23l5.73-.75c9.22-1.25,9.47-3.74,9.47-21.67V109.22c0-6.73,0-7.22-5-7.22H75.65a3.49,3.49,0,0,1-.75-4.73L85.61,92c2-1,3.74-2.49,3.74-5,0-14.45,1.74-29.89,7.72-43.84,6.23-14.2,20.18-31.64,44.84-31.64,13.2,0,24.41,6,24.41,14.95,0,5-4.73,9-9.47,9-2.74,0-4.23-1-6-3-4.73-5.48-11.71-11-19.93-11-7.72,0-13.95,4.73-17.69,13.7-4.48,11.46-5.48,29.64-5.48,42.1v7.22c0,6.73,0,7,4.23,7h28.4c2.74,2.49,1,9.47-1.74,10.46Z" transform="translate(-28.98 -11.58)"/></svg>